<svg xmlns="http://www.w3.org/2000/svg" style="display:none">
<symbol id="i-shield" viewBox="0 0 24 24"><path fill="currentColor" d="M12 2l7 3v6c0 5-3.4 9.7-7 11-3.6-1.3-7-6-7-11V5z"/></symbol>
<symbol id="i-building" viewBox="0 0 24 24"><path fill="currentColor" d="M3 21V5l9-3 9 3v16H3zM7 9h2v2H7zM7 13h2v2H7zM11 9h2v2h-2zM11 13h2v2h-2zM15 9h2v2h-2zM15 13h2v2h-2z"/></symbol>
<symbol id="i-cyber" viewBox="0 0 24 24"><path fill="currentColor" d="M4 8h16v8H4zM2 10h2v4H2zM20 10h2v4h-2zM9 6h6v2H9zM9 16h6v2H9z"/></symbol>
<symbol id="i-check" viewBox="0 0 24 24"><path fill="currentColor" d="M9 16.2 4.8 12l-1.4 1.4L9 19 21 7l-1.4-1.4z"/></symbol>
<symbol id="i-phone" viewBox="0 0 24 24"><path fill="currentColor" d="M6.6 10.8a12 12 0 006.6 6.6l2.2-2.2c.3-.3.7-.4 1.1-.3 1 .3 2.1.5 3.2.5.6 0 1 .4 1 .9V20c0 .6-.4 1-1 1C10.8 21 3 13.2 3 3c0-.6.4-1 1-1h3.7c.5 0 .9.4.9 1 0 1.1.2 2.2.5 3.2.1.4 0 .8-.3 1.1l-2.2 2.5z"/></symbol>
</svg>